<?xml version="1.0" encoding="utf-8"?>
<!-- Generator: Adobe Illustrator 26.2.1, SVG Export Plug-In . SVG Version: 6.00 Build 0)  -->
<svg version="1.1" id="Layer_2" xmlns="http://www.w3.org/2000/svg" xmlns:xlink="http://www.w3.org/1999/xlink" x="0px" y="0px"
	 width="165.6px" height="25.6px" viewBox="0 0 165.6 25.6" style="enable-background:new 0 0 165.6 25.6;" xml:space="preserve">
<style type="text/css">
	.st0{fill:#FFFFFF;}
</style>
<g id="b">
	<g id="c">
		<path class="st0" d="M47.2,25.1H32.9v-0.9h0.7c0.5,0,1-0.2,1.3-0.5s0.5-0.8,0.6-1.3V3.7c0-0.4-0.2-0.9-0.6-1.2
			c-0.3-0.3-0.8-0.5-1.2-0.5h-0.7V1.2h10c0.3,0,0.7,0,1.2,0S45,1.1,45.4,1c0.4-0.1,0.8-0.1,1.1-0.2c0.3-0.1,0.6-0.2,0.8-0.3v4.9
			h-0.9V4.5c0-0.4-0.1-0.9-0.5-1.2c-0.3-0.3-0.7-0.5-1.2-0.5h-6.5v9.7h5.3c0.4,0,0.7-0.1,1-0.4c0.2-0.2,0.4-0.6,0.4-1v-0.8h0.9v5.8
			h-0.9v-0.8c0-0.4-0.1-0.7-0.4-1c-0.2-0.2-0.6-0.4-0.9-0.4h-5.3v9.5h4.5c0.9,0,1.6-0.1,2.2-0.3c0.6-0.2,1.1-0.5,1.6-0.9
			c0.4-0.4,0.8-0.9,1.2-1.4c0.3-0.5,0.6-1.1,0.9-1.8h0.9C49.4,19.1,47.2,25.1,47.2,25.1z M60,22.3c0,0.5,0.2,0.9,0.6,1.3
			c0.3,0.3,0.8,0.5,1.3,0.5h0.7V25h-7.9v-0.9h0.7c0.5,0,1-0.2,1.3-0.5s0.5-0.8,0.6-1.3V3.8c0-0.5-0.2-0.9-0.6-1.3
			C56.3,2.1,55.9,2,55.4,2h-0.7V1.1h7.9V2h-0.7c-0.5,0-1,0.2-1.3,0.5C60.2,2.9,60,3.3,60,3.8v9l8.1-9.7c0.1-0.1,0.2-0.3,0.2-0.5
			c0-0.2-0.1-0.3-0.2-0.5S67.8,2,67.5,2h-0.6V1.1h7.6V2h-0.4c-0.7,0-1.3,0.1-1.9,0.4c-0.6,0.3-1.1,0.6-1.5,1.1l-8.1,8.9L72,22.9
			c0.4,0.4,0.9,0.7,1.3,0.9c0.5,0.2,1.1,0.3,1.8,0.3V25h-1.7c-0.2,0-0.6,0-1,0s-0.9-0.1-1.3-0.2c-0.5-0.1-1-0.3-1.5-0.6
			c-0.5-0.2-1-0.6-1.4-1.1l-8.3-9.5L60,22.3L60,22.3L60,22.3z M91,14.7c0.7,0.7,1.2,1.3,1.4,2.1c0.2,0.7,0.3,1.4,0.3,2.2
			c0,1-0.1,1.8-0.5,2.6c-0.3,0.8-0.7,1.5-1.3,2.1s-1.2,1-2.1,1.3c-0.8,0.3-1.7,0.5-2.7,0.5c-0.4,0-0.9,0-1.4-0.1s-1.1-0.2-1.6-0.3
			c-0.5-0.1-1.1-0.4-1.6-0.6c-0.5-0.2-0.9-0.6-1.2-0.9c-0.1-0.2-0.1-0.4-0.1-0.7s-0.1-0.5-0.1-0.7c0-0.5,0.1-1.1,0.1-1.8
			c0.1-0.7,0.2-1.3,0.4-1.9h0.8c0,0.2-0.1,0.4-0.1,0.6v0.4c0,1.4,0.4,2.5,1.2,3.3c0.8,0.8,1.8,1.2,3.1,1.2H86c0.6,0,1.1-0.1,1.6-0.3
			c0.5-0.2,1-0.5,1.3-0.9c0.4-0.4,0.7-0.8,0.9-1.3c0.2-0.5,0.3-1.1,0.3-1.7c0-1.2-0.4-2.2-1.2-2.9l-6.3-5.9
			c-0.7-0.7-1.2-1.4-1.5-2.2c-0.3-0.8-0.4-1.5-0.4-2.2c0-0.7,0.1-1.4,0.4-2.2s0.7-1.3,1.2-1.9c0.5-0.6,1.2-1,1.9-1.3
			c0.8-0.3,1.6-0.5,2.6-0.5c0.4,0,1,0.1,1.4,0.1c0.5,0.1,1,0.1,1.4,0.2h1.6v4.7h-0.9c0-1.1-0.3-1.9-1-2.5c-0.7-0.6-1.5-0.9-2.4-0.9
			c-0.6,0-1.1,0.1-1.5,0.3c-0.5,0.2-0.9,0.4-1.2,0.8S83.7,4,83.6,4.4c-0.2,0.4-0.3,0.9-0.3,1.3c0,0.4,0.1,0.9,0.2,1.4
			c0.2,0.5,0.5,1,1.1,1.5L91,14.7L91,14.7z M113.6,1.1c0.3,0,0.7,0,1.2,0s0.8-0.1,1.2-0.2c0.4-0.1,0.8-0.1,1.1-0.2
			c0.3-0.1,0.6-0.2,0.8-0.3v4.9H117V4.4c0-0.4-0.1-0.9-0.5-1.2c-0.3-0.3-0.7-0.5-1.2-0.5h-6.1v19.6c0.1,0.5,0.2,0.9,0.6,1.3
			c0.3,0.3,0.8,0.5,1.3,0.5h0.7v0.9H104v-0.9h0.7c0.5,0,0.9-0.2,1.2-0.5s0.5-0.8,0.6-1.2V2.7h-6.1c-0.5,0-0.8,0.2-1.2,0.5
			c-0.3,0.3-0.5,0.7-0.5,1.2v0.9H98V0.4c0.2,0.1,0.5,0.2,0.8,0.3s0.7,0.2,1.1,0.2s0.8,0.1,1.2,0.2s0.8,0,1.2,0L113.6,1.1L113.6,1.1z
			 M137.1,25.1h-14.3v-0.9h0.7c0.5,0,1-0.2,1.3-0.5c0.3-0.3,0.5-0.8,0.6-1.3V3.7c-0.1-0.4-0.2-0.9-0.6-1.2c-0.3-0.3-0.8-0.5-1.2-0.5
			h-0.7V1.2h10c0.3,0,0.7,0,1.1,0s0.8-0.1,1.2-0.2c0.4-0.1,0.8-0.1,1.1-0.2c0.3-0.1,0.6-0.2,0.8-0.3v4.9h-0.9V4.5
			c0-0.4-0.1-0.9-0.5-1.2c-0.3-0.3-0.7-0.5-1.1-0.5h-6.5v9.7h5.3c0.4,0,0.7-0.1,1-0.4c0.2-0.2,0.4-0.6,0.4-1v-0.8h0.9v5.8h-0.9v-0.8
			c0-0.4-0.1-0.7-0.4-1c-0.2-0.2-0.6-0.4-0.9-0.4h-5.3v9.5h4.5c0.9,0,1.6-0.1,2.2-0.3c0.6-0.2,1.1-0.5,1.6-0.9
			c0.4-0.4,0.8-0.9,1.1-1.4c0.3-0.5,0.6-1.1,0.9-1.8h0.9L137.1,25.1L137.1,25.1z M153.4,1.2c2.1,0,3.8,0.6,4.9,1.7s1.8,2.8,1.8,4.8
			c0,0.8-0.1,1.5-0.4,2.3s-0.6,1.4-1.1,2s-1,1.1-1.6,1.5c-0.6,0.4-1.3,0.7-2,0.8c0.3,0.2,0.6,0.6,1,0.9c0.3,0.4,0.6,0.7,0.9,1
			c0.5,0.8,1.1,1.5,1.6,2.2c0.4,0.6,0.9,1.2,1.3,1.8c0.5,0.6,0.9,1.1,1.2,1.4c0.7,0.7,1.3,1.3,2,1.8c0.7,0.4,1.5,0.7,2.6,0.7v0.9
			h-2.1c-0.8,0-1.5-0.1-2.1-0.3s-1.2-0.4-1.7-0.7c-0.5-0.3-0.9-0.6-1.2-1c-0.3-0.3-0.7-0.7-1-1.1c-0.1,0-0.1-0.2-0.3-0.4
			c-0.1-0.2-0.3-0.5-0.6-0.8c-0.2-0.3-0.4-0.7-0.7-1.1c-0.2-0.4-0.5-0.8-0.8-1.1c-0.5-0.7-1-1.4-1.5-2.1c-0.5-0.7-0.9-1.2-1.1-1.5
			c-0.2-0.2-0.4-0.5-0.6-0.7c-0.2-0.2-0.4-0.4-0.7-0.5c-0.2-0.1-0.9-0.2-1.8-0.2v8.7c0.1,0.5,0.2,0.9,0.6,1.3
			c0.3,0.3,0.8,0.5,1.3,0.5h0.7V25h-7.8v-0.9h0.7c0.5,0,1-0.2,1.3-0.5s0.5-0.8,0.6-1.3V3.9c-0.1-0.5-0.2-0.9-0.6-1.3
			c-0.3-0.4-0.8-0.5-1.3-0.5h-0.7V1.2L153.4,1.2L153.4,1.2z M151.3,12.8c0.2,0,0.4,0,0.7-0.1c0.4,0,0.9-0.1,1.3-0.1
			c0.5-0.1,1-0.2,1.4-0.5c0.5-0.2,0.9-0.5,1.3-1c0.4-0.4,0.7-1,0.9-1.7c0.1-0.4,0.2-1,0.2-1.6V7.6c-0.1-1.4-0.4-2.6-1.1-3.4
			c-0.7-0.9-1.6-1.3-2.7-1.3c-0.4,0-0.8,0-1.1,0h-2.7v10L151.3,12.8L151.3,12.8L151.3,12.8z M10.3,25.6l0.1,0h0.2l0.1,0
			c0.4-0.1,9.7-2.1,10.2-9.1V3c0-0.1,0-0.3-0.2-0.4c-0.1-0.1-0.2-0.1-0.4-0.1c0,0-0.5,0-1.3,0c-2.1,0-6-0.3-8.2-2.4
			c-0.2-0.2-0.5-0.2-0.7,0C8.4,1.7,5.9,2.3,3.7,2.5c-0.7,0-1.3,0.1-1.8,0.1c-0.8,0-1.3,0-1.3,0c-0.1,0-0.3,0-0.4,0.1
			C0.1,2.7,0,2.9,0,3v13.5C0.6,23.5,9.9,25.6,10.3,25.6L10.3,25.6z M1.2,3.6h0.9c0.5,0,1.2,0,1.8-0.1C6,3.3,8.7,2.8,10.6,1.2
			c2.6,2.1,6.4,2.3,8.5,2.3H20v12.8c-0.4,6.2-9,8.1-9.4,8.2h-0.1c-0.4-0.1-9-1.9-9.4-8.2L1.2,3.6L1.2,3.6z M15.6,16.5
			c-0.1,0.1-0.1,0.1-0.1,0.2L15,17.6c-0.2,0.3-0.4,0.6-0.7,0.9s-0.6,0.4-1,0.6c-0.3,0.1-0.7,0.2-1.1,0.2H9.2v-5.9h3.4
			c0.2,0,0.4,0.1,0.6,0.3c0.1,0.1,0.2,0.3,0.2,0.6v0.5H14V11h-0.6v0.5c0,0.2-0.1,0.4-0.2,0.6c-0.1,0.1-0.4,0.2-0.6,0.3H9.2V6.3h4
			c0.3,0.1,0.5,0.1,0.7,0.3c0.2,0.2,0.3,0.4,0.3,0.7V8h0.6V4.9c-0.1,0.1-0.3,0.1-0.5,0.2c-0.3,0-0.5,0.1-0.8,0.1
			c-0.2,0.1-0.5,0.1-0.8,0.1c-0.2,0.1-0.5,0.1-0.7,0.1H5.8v0.6h0.4C6.5,5.9,6.8,6,7,6.2c0.2,0.2,0.3,0.4,0.4,0.7v11.7
			c-0.1,0.3-0.1,0.6-0.4,0.8c-0.2,0.2-0.5,0.3-0.8,0.3H5.8v0.6h9l1.3-3.5l0.1-0.2L15.6,16.5L15.6,16.5L15.6,16.5z"/>
	</g>
</g>
</svg>
