<svg width="703" height="136" viewBox="0 0 703 136" fill="none" xmlns="http://www.w3.org/2000/svg">
<path fill-rule="evenodd" clip-rule="evenodd" d="M63.0116 61.5004L0.000602969 30.3804V0L63.0116 31.1199V61.5004ZM68.961 61.5004L131.972 30.3804V0L68.961 31.1199V61.5004ZM68.961 98.8431L131.972 67.7231V37.3408L68.961 68.4607V98.8431ZM68.961 136V105.618L100.466 90.0567L68.961 136ZM0 67.7231L63.011 98.8431V68.4607L0 37.3408V67.7231ZM63.0091 105.618V136L31.5046 90.0567L63.0091 105.618Z" fill="#E2665C"/>
<path d="M215.534 29.4564V99.4398H201.262V29.4564H215.534ZM243.125 59.3532V70.6005H211.633V59.3532H243.125ZM246.455 29.4564V40.7518H211.633V29.4564H246.455Z" fill="#FFFCF7"/>
<path d="M299.259 88.1925V99.4398H264.389V88.1925H299.259ZM269.004 29.4564V99.4398H254.732V29.4564H269.004Z" fill="#FFFCF7"/>
<path d="M307.442 29.4564H333.273C338.569 29.4564 343.12 30.2575 346.926 31.8597C350.763 33.4619 353.713 35.8331 355.774 38.9734C357.836 42.1137 358.866 45.9749 358.866 50.5572C358.866 54.3063 358.232 57.5267 356.963 60.2184C355.727 62.878 353.966 65.105 351.683 66.8995C349.431 68.6619 346.783 70.0718 343.739 71.1292L339.219 73.5325H316.766L316.67 62.2852H333.368C335.873 62.2852 337.951 61.8366 339.6 60.9393C341.249 60.0421 342.486 58.7924 343.31 57.1902C344.167 55.588 344.595 53.7295 344.595 51.6146C344.595 49.3716 344.183 47.4329 343.358 45.7987C342.533 44.1645 341.281 42.9148 339.6 42.0496C337.919 41.1844 335.81 40.7518 333.273 40.7518H321.713V99.4398H307.442V29.4564ZM346.165 99.4398L330.371 68.2453L345.451 68.1492L361.435 98.7669V99.4398H346.165Z" fill="#FFFCF7"/>
<path d="M382.174 29.4564V99.4398H372.993V29.4564H382.174ZM411.192 60.9393V68.5337H380.176V60.9393H411.192ZM415.902 29.4564V37.0508H380.176V29.4564H415.902Z" fill="#FFFCF7"/>
<path d="M435.073 47.4329V99.4398H426.225V47.4329H435.073ZM425.559 33.6381C425.559 32.1962 425.987 30.9785 426.843 29.9851C427.731 28.9918 429.032 28.4951 430.744 28.4951C432.425 28.4951 433.71 28.9918 434.598 29.9851C435.517 30.9785 435.977 32.1962 435.977 33.6381C435.977 35.016 435.517 36.2016 434.598 37.195C433.71 38.1563 432.425 38.6369 430.744 38.6369C429.032 38.6369 427.731 38.1563 426.843 37.195C425.987 36.2016 425.559 35.016 425.559 33.6381Z" fill="#FFFCF7"/>
<path d="M458.003 58.5361V99.4398H449.202V47.4329H457.527L458.003 58.5361ZM455.91 71.4657L452.247 71.3215C452.278 67.7646 452.802 64.4802 453.816 61.4681C454.831 58.4239 456.258 55.7803 458.098 53.5373C459.937 51.2942 462.126 49.5638 464.663 48.3462C467.232 47.0965 470.07 46.4716 473.178 46.4716C475.715 46.4716 477.999 46.8241 480.028 47.5291C482.058 48.202 483.786 49.2915 485.214 50.7975C486.672 52.3036 487.782 54.2582 488.544 56.6615C489.305 59.0327 489.685 61.9327 489.685 65.3614V99.4398H480.837V65.2652C480.837 62.5415 480.441 60.3626 479.648 58.7283C478.855 57.0621 477.697 55.8604 476.175 55.1234C474.653 54.3544 472.782 53.9698 470.562 53.9698C468.373 53.9698 466.375 54.4345 464.568 55.3637C462.792 56.293 461.253 57.5748 459.953 59.209C458.685 60.8432 457.686 62.7178 456.956 64.8327C456.258 66.9155 455.91 69.1265 455.91 71.4657Z" fill="#FFFCF7"/>
<path d="M533.403 90.5477V63.7752C533.403 61.7244 532.991 59.946 532.167 58.4399C531.374 56.9018 530.169 55.7162 528.551 54.8831C526.934 54.05 524.936 53.6334 522.557 53.6334C520.337 53.6334 518.387 54.0179 516.706 54.787C515.057 55.556 513.756 56.5654 512.805 57.8151C511.885 59.0648 511.425 60.4106 511.425 61.8526H502.625C502.625 59.9941 503.1 58.1515 504.052 56.3251C505.003 54.4986 506.367 52.8483 508.143 51.3743C509.951 49.8683 512.107 48.6826 514.613 47.8175C517.15 46.9202 519.972 46.4716 523.08 46.4716C526.823 46.4716 530.121 47.1125 532.975 48.3942C535.861 49.676 538.113 51.6146 539.73 54.2102C541.38 56.7737 542.204 59.9941 542.204 63.8713V88.0964C542.204 89.8267 542.347 91.6692 542.632 93.6239C542.949 95.5786 543.409 97.2609 544.012 98.6708V99.4398H534.831C534.387 98.4144 534.038 97.0526 533.784 95.3543C533.53 93.6239 533.403 92.0217 533.403 90.5477ZM534.926 67.9088L535.021 74.1574H526.125C523.62 74.1574 521.384 74.3656 519.417 74.7822C517.451 75.1667 515.802 75.7595 514.47 76.5606C513.138 77.3617 512.123 78.3711 511.425 79.5888C510.728 80.7744 510.379 82.1683 510.379 83.7705C510.379 85.4047 510.743 86.8947 511.473 88.2406C512.202 89.5864 513.297 90.6599 514.755 91.461C516.246 92.23 518.07 92.6145 520.226 92.6145C522.922 92.6145 525.3 92.0377 527.362 90.8842C529.423 89.7306 531.057 88.3207 532.262 86.6544C533.499 84.9881 534.165 83.3699 534.26 81.7998L538.018 86.0776C537.796 87.4234 537.193 88.9135 536.21 90.5477C535.227 92.1819 533.911 93.7521 532.262 95.2581C530.644 96.7321 528.71 97.9658 526.458 98.9592C524.238 99.9205 521.733 100.401 518.942 100.401C515.453 100.401 512.393 99.7122 509.76 98.3343C507.16 96.9564 505.13 95.1139 503.671 92.8068C502.244 90.4676 501.531 87.856 501.531 84.9721C501.531 82.1843 502.07 79.733 503.148 77.6181C504.226 75.4712 505.78 73.6927 507.81 72.2828C509.84 70.8408 512.282 69.7514 515.136 69.0144C517.99 68.2773 521.178 67.9088 524.698 67.9088H534.926Z" fill="#FFFCF7"/>
<path d="M564.848 58.5361V99.4398H556.047V47.4329H564.372L564.848 58.5361ZM562.755 71.4657L559.092 71.3215C559.124 67.7646 559.647 64.4802 560.662 61.4681C561.677 58.4239 563.104 55.7803 564.943 53.5373C566.783 51.2942 568.971 49.5638 571.508 48.3462C574.077 47.0965 576.915 46.4716 580.023 46.4716C582.56 46.4716 584.844 46.8241 586.874 47.5291C588.903 48.202 590.632 49.2915 592.059 50.7975C593.518 52.3036 594.628 54.2582 595.389 56.6615C596.15 59.0327 596.531 61.9327 596.531 65.3614V99.4398H587.682V65.2652C587.682 62.5415 587.286 60.3626 586.493 58.7283C585.7 57.0621 584.543 55.8604 583.02 55.1234C581.498 54.3544 579.627 53.9698 577.407 53.9698C575.219 53.9698 573.221 54.4345 571.413 55.3637C569.637 56.293 568.099 57.5748 566.798 59.209C565.53 60.8432 564.531 62.7178 563.802 64.8327C563.104 66.9155 562.755 69.1265 562.755 71.4657Z" fill="#FFFCF7"/>
<path d="M630.497 93.0952C632.59 93.0952 634.524 92.6626 636.3 91.7974C638.076 90.9322 639.535 89.7466 640.677 88.2406C641.819 86.7025 642.469 84.9561 642.627 83.0014H651C650.841 86.0776 649.811 88.9455 647.908 91.6051C646.037 94.2327 643.579 96.3636 640.534 97.9979C637.49 99.6 634.144 100.401 630.497 100.401C626.628 100.401 623.25 99.7122 620.364 98.3343C617.51 96.9564 615.131 95.0659 613.228 92.6626C611.357 90.2593 609.946 87.5036 608.994 84.3953C608.075 81.255 607.615 77.9385 607.615 74.4458V72.427C607.615 68.9342 608.075 65.6337 608.994 62.5255C609.946 59.3852 611.357 56.6134 613.228 54.2102C615.131 51.8069 617.51 49.9163 620.364 48.5384C623.25 47.1606 626.628 46.4716 630.497 46.4716C634.524 46.4716 638.045 47.3048 641.057 48.971C644.07 50.6053 646.433 52.8483 648.146 55.7002C649.89 58.52 650.841 61.7244 651 65.3133H642.627C642.469 63.1664 641.866 61.2277 640.82 59.4974C639.805 57.767 638.409 56.3891 636.633 55.3637C634.889 54.3063 632.844 53.7776 630.497 53.7776C627.801 53.7776 625.533 54.3223 623.694 55.4118C621.886 56.4693 620.443 57.9112 619.365 59.7377C618.318 61.5322 617.557 63.5349 617.081 65.7459C616.637 67.9249 616.415 70.1519 616.415 72.427V74.4458C616.415 76.7209 616.637 78.9639 617.081 81.1749C617.525 83.3859 618.271 85.3887 619.317 87.1831C620.396 88.9776 621.839 90.4195 623.646 91.509C625.486 92.5665 627.769 93.0952 630.497 93.0952Z" fill="#FFFCF7"/>
<path d="M682.254 100.401C678.671 100.401 675.42 99.7923 672.502 98.5746C669.616 97.3249 667.127 95.5786 665.033 93.3355C662.972 91.0924 661.386 88.4328 660.276 85.3566C659.166 82.2804 658.611 78.9159 658.611 75.2629V73.2441C658.611 69.0144 659.23 65.2492 660.467 61.9487C661.703 58.6162 663.384 55.7963 665.509 53.4892C667.634 51.182 670.044 49.4357 672.74 48.25C675.436 47.0644 678.227 46.4716 681.113 46.4716C684.791 46.4716 687.963 47.1125 690.627 48.3942C693.323 49.676 695.527 51.4704 697.239 53.7776C698.952 56.0527 700.22 58.7444 701.045 61.8526C701.87 64.9288 702.282 68.2934 702.282 71.9464V75.9358H663.844V68.6779H693.481V68.005C693.354 65.6978 692.879 63.4548 692.054 61.2758C691.261 59.0968 689.993 57.3024 688.248 55.8925C686.504 54.4825 684.125 53.7776 681.113 53.7776C679.115 53.7776 677.275 54.2102 675.594 55.0754C673.913 55.9085 672.47 57.1582 671.265 58.8245C670.06 60.4907 669.125 62.5255 668.459 64.9288C667.793 67.3321 667.46 70.1038 667.46 73.2441V75.2629C667.46 77.7302 667.793 80.0534 668.459 82.2324C669.156 84.3793 670.155 86.2699 671.456 87.9041C672.788 89.5383 674.389 90.8201 676.26 91.7493C678.163 92.6786 680.32 93.1432 682.73 93.1432C685.838 93.1432 688.47 92.5024 690.627 91.2206C692.783 89.9389 694.67 88.2245 696.288 86.0776L701.616 90.3554C700.506 92.0538 699.095 93.672 697.382 95.2101C695.669 96.7482 693.56 97.9979 691.055 98.9592C688.581 99.9205 685.648 100.401 682.254 100.401Z" fill="#FFFCF7"/>
</svg>
