<svg width="143" height="45" viewBox="0 0 143 45" fill="none" xmlns="http://www.w3.org/2000/svg">
<g clip-path="url(#clip0_2522_4039)">
<path d="M50.3467 33.2473L54.9373 10.0742L62.4198 26.8343L70.1709 10.082L74.2979 33.2551H70.9241L68.8171 20.2365L62.3644 34.2419L56.0988 20.2209L53.7521 33.2395L50.3467 33.2473Z" fill="white"/>
<path d="M81.6274 11.6875V24.6722C81.6274 26.5243 81.9338 27.8783 82.5466 28.734C82.9933 29.3311 83.5754 29.8163 84.2462 30.1507C84.917 30.485 85.6578 30.6592 86.409 30.6592C87.1602 30.6592 87.901 30.485 88.5718 30.1507C89.2426 29.8163 89.8247 29.3311 90.2714 28.734C90.8807 27.906 91.1871 26.5521 91.1906 24.6722V11.6875H94.4775V25.5835C94.4775 27.8626 93.762 29.733 92.331 31.1945C91.5713 31.9917 90.6509 32.6223 89.6292 33.0457C88.6075 33.4691 87.5074 33.6758 86.3998 33.6524C85.2946 33.6757 84.1968 33.4689 83.1777 33.0454C82.1586 32.622 81.2409 31.9914 80.4844 31.1945C79.0516 29.726 78.3361 27.8557 78.3379 25.5835V11.7161L81.6274 11.6875Z" fill="white"/>
<path d="M112.031 14.9019L109.342 16.4642C109.013 15.7981 108.524 15.2216 107.918 14.7848C107.282 14.4479 106.562 14.2987 105.842 14.3551C105.123 14.4114 104.436 14.6708 103.862 15.1024C103.574 15.3303 103.343 15.6196 103.185 15.9486C103.029 16.274 102.949 16.6301 102.953 16.9901C102.953 18.0316 103.743 18.8778 105.323 19.5287L107.496 20.4114C109.266 21.1179 110.561 21.9806 111.381 22.9995C112.218 24.0703 112.652 25.396 112.608 26.7488C112.641 27.6617 112.481 28.5713 112.138 29.4195C111.795 30.2677 111.277 31.0359 110.617 31.6751C109.959 32.3162 109.176 32.8196 108.316 33.1551C107.456 33.4906 106.537 33.6514 105.613 33.6278C103.892 33.6902 102.213 33.0964 100.922 31.9693C99.7073 30.8601 98.9497 29.2979 98.6494 27.2826L101.968 26.5588C102.115 27.8242 102.379 28.699 102.758 29.1833C103.27 29.8009 103.966 30.2443 104.746 30.4512C105.526 30.658 106.353 30.618 107.109 30.3368C107.549 30.158 107.947 29.8921 108.278 29.5556C108.616 29.2156 108.88 28.8113 109.056 28.3674C109.231 27.9235 109.313 27.449 109.298 26.9728C109.3 26.5856 109.24 26.2005 109.119 25.8323C109.001 25.4797 108.815 25.1533 108.571 24.8716C108.291 24.5513 107.964 24.274 107.602 24.0488C107.153 23.7643 106.681 23.5186 106.19 23.3145L104.083 22.4501C101.098 21.1968 99.6055 19.3742 99.6055 16.9823C99.5925 16.2097 99.7544 15.444 100.079 14.7412C100.404 14.0385 100.884 13.4164 101.483 12.9205C102.771 11.8119 104.433 11.2234 106.14 11.2724C108.654 11.2724 110.618 12.4822 112.031 14.9019Z" fill="white"/>
<path d="M121.013 11.6875V33.2463H117.729V11.6875H121.013Z" fill="white"/>
<path d="M142.942 12.8474V16.7009C141.04 15.1282 139.072 14.3471 137.037 14.3575C135.976 14.3362 134.923 14.5378 133.947 14.9489C132.97 15.3601 132.094 15.9714 131.374 16.7425C130.62 17.5112 130.027 18.4206 129.631 19.4179C129.236 20.4153 129.045 21.4804 129.07 22.5514C129.045 23.6103 129.236 24.6633 129.632 25.6474C130.028 26.6316 130.621 27.5268 131.374 28.2796C132.105 29.0374 132.987 29.6369 133.965 30.0403C134.942 30.4436 135.994 30.642 137.053 30.623C138.065 30.651 139.072 30.4599 140.003 30.0632C140.495 29.8558 140.966 29.6012 141.409 29.3029C141.943 28.9544 142.456 28.5744 142.944 28.165V32.0888C141.141 33.1182 139.096 33.6614 137.013 33.6641C135.532 33.6878 134.061 33.4182 132.686 32.8713C131.312 32.3245 130.062 31.5113 129.01 30.4797C127.958 29.4481 127.125 28.2189 126.561 26.8645C125.997 25.5101 125.713 24.0578 125.725 22.5931C125.707 19.8946 126.687 17.2826 128.48 15.248C130.74 12.6183 133.663 11.3025 137.25 11.3008C139.254 11.3003 141.22 11.8346 142.942 12.8474V12.8474Z" fill="white"/>
<path d="M20.2586 0L1.20605 10.1909L20.2796 21.0719L27.5593 16.9059L24.4936 15.1666L20.2796 17.5751L7.49543 10.2847L20.2796 3.44471L21.5201 4.12428L36.219 11.9771L39.3374 10.1987L20.2586 0Z" fill="white"/>
<path d="M11.9256 18.5073V22.0041L16.2344 24.475V39.5765L3.06568 31.5675V13.4483L0 11.7012V33.2625L19.3001 45.0001V22.7149L11.9256 18.5073Z" fill="white"/>
<path d="M38.1893 13.0186L21.2148 22.7149V31.2264L24.2779 29.4741V24.475L37.4466 16.9581V31.5805L24.2779 39.5765L21.2148 41.4408V44.9975L40.5123 33.2599V11.6855L38.1893 13.0186Z" fill="white"/>
</g>
<defs>
<clipPath id="clip0_2522_4039">
<rect width="142.941" height="45" fill="white"/>
</clipPath>
</defs>
</svg>