<svg width="200" height="100" viewBox="0 0 200 100" fill="none" xmlns="http://www.w3.org/2000/svg">
<g clip-path="url(#clip0_117_42)">
<path d="M42.4585 61.4012C39.422 62.3621 36.2655 62.9002 33.0796 63C23.925 63.0342 21 57.6308 21 49.1238C21 41.4291 23.5367 36 32.7776 36C39.0245 36 41.7078 38.659 42.0961 41.7283H37.0572C36.8846 40.3262 35.7975 37.804 32.1736 37.8125C26.177 37.8382 25.5989 44.3702 25.6161 49.4145C25.6161 55.8439 27.4108 61.1875 33.951 61.1704C35.2795 61.1744 36.5988 60.9517 37.851 60.512V52.6206C37.851 49.1238 37.2729 49.2008 33.6318 48.551V47.696H42.4585V61.4012Z" fill="white"/>
<path d="M48.2739 45.8578C48.2739 42.7799 48.2135 42.7799 45.0901 42.3183V41.6257H53.3473C55.8668 41.6257 62.8384 41.6257 62.8384 47.1745C62.8384 50.7141 60.3449 51.8939 57.6615 52.3043L63.8566 62.564H60.0342L54.0721 52.8601H52.01V62.5383H48.3257L48.2739 45.8578ZM52.01 51.3895H53.9082C56.0911 51.3895 59.1455 50.8081 59.1369 47.3284C59.1283 43.8487 57.0402 43.0535 54.2188 43.0535C51.9754 43.0535 51.9582 43.6264 51.9668 45.8578L52.01 51.3895Z" fill="white"/>
<path d="M66.8765 45.8066C66.8765 42.7372 66.7815 42.7287 63.6926 42.2841V41.6001H79.7757L79.8793 46.1827H78.9301C78.9301 43.7033 77.5237 43.045 75.3063 43.045H72.7178C71.0525 43.045 70.6039 43.1732 70.6039 44.6609V50.8594H74.6419C76.9543 50.8594 77.2304 49.4915 77.3943 48.4484H78.3348V54.9804H77.4116C77.4116 53.2705 76.6868 52.3043 74.6505 52.3129H70.6039V59.2553C70.6039 60.9652 71.0439 61.0507 72.7264 61.0507H76.4452C78.3521 61.0507 79.258 60.4266 79.4565 57.9984H80.3883L80.3193 62.5041H66.9369L66.8765 45.8066Z" fill="white"/>
<path d="M84.2797 45.7638C84.2797 42.6859 84.1675 42.6859 81.0786 42.2327V41.5573H97.1617L97.2652 46.1656H96.3334C96.3334 43.6862 94.927 43.0279 92.7095 43.0364H90.0693C88.4126 43.0364 87.964 43.1732 87.964 44.6609V50.8509H92.0279C94.3403 50.8509 94.6164 49.4658 94.7717 48.4484H95.7294V54.9889H94.8148C94.8148 53.279 94.0642 52.33 92.0451 52.3214H87.9812V59.2467C87.9812 60.9566 88.404 61.0336 90.1124 61.0336H93.8139C95.7294 61.0336 96.6268 60.418 96.8338 57.9984H97.7916L97.7053 62.5127L84.3142 62.5041L84.2797 45.7638Z" fill="white"/>
<path d="M101.812 45.4817C101.812 42.609 101.329 42.7287 98.4473 42.1986V41.5146H105.522L116.144 58.4003H116.222V41.506H118.335V62.4272H115.117L103.987 44.7549H103.926V62.4272H101.847L101.812 45.4817Z" fill="white"/>
<path d="M136.765 43.2331C136.765 38.8813 134.522 38.0348 130.786 38.0348C128.517 38.0348 128.396 38.7701 128.396 40.3689V48.9186H130.579C133.927 48.893 136.774 47.8927 136.765 43.2331ZM144.755 54.4161H152.158L148.319 45.3448L144.755 54.4161ZM128.362 50.7483V62.3588H123.745V41.4804C123.745 37.633 123.65 37.633 119.699 37.0687V36.2137H132.788C137.965 36.2137 141.295 38.7787 141.33 43.3955C141.33 50.7312 135.04 50.7397 129.828 50.7483H128.362ZM155.221 62.2989L152.702 55.861H144.134L141.632 62.3331H139.57L146.248 45.4047C146.488 44.8032 146.675 44.1825 146.809 43.5494C146.809 42.3182 145.566 42.3011 144.22 42.1045V41.412H150.528L158.759 62.3246L155.221 62.2989ZM177.957 62.2989H174.73L163.677 44.6181H163.608V62.2904H161.503V45.3448C161.503 42.4721 161.011 42.5918 158.12 42.0618V41.3778H165.187L175.826 58.2293H175.886L175.834 41.335H177.948L177.957 62.2989Z" fill="white"/>
</g>
<defs>
<clipPath id="clip0_117_42">
<rect width="157" height="27" fill="white" transform="translate(21 36)"/>
</clipPath>
</defs>
</svg>
