<svg width="200" height="100" viewBox="0 0 200 100" fill="none" xmlns="http://www.w3.org/2000/svg">
<g clip-path="url(#clip0_117_261)">
<path d="M153.569 60.4609C154.305 60.8987 155.096 61.2215 155.917 61.4192C157.048 61.7551 158.245 61.7299 159.363 61.3468C160.151 61.0169 160.83 60.4417 161.311 59.6951C161.793 58.9485 162.055 58.0645 162.065 57.1569V55.9812C161.737 56.271 161.441 56.5384 161.119 56.8059C159.914 57.726 158.429 58.1241 156.962 57.9202C155.569 57.7709 154.264 57.1187 153.262 56.0704C152.381 55.1526 151.746 53.9981 151.423 52.7274C150.876 50.7694 150.924 48.6762 151.558 46.7489C152.342 44.3865 153.808 42.7484 156.13 42.1411C157.396 41.76 158.743 41.8265 159.97 42.3305C160.73 42.6641 161.407 43.1807 161.95 43.8404L162.054 43.963V42.3918H165.25V44.0633L165.297 50.9555C165.297 52.8778 165.349 54.8 165.297 56.7223C165.306 58.3369 164.915 59.9251 164.164 61.3245C163.449 62.6384 162.314 63.6287 160.968 64.1104C158.951 64.8391 156.774 64.8839 154.733 64.2385C154.104 64.0547 153.501 63.7872 152.888 63.5477C152.836 63.5477 152.758 63.4028 152.774 63.3526C153.007 62.411 153.257 61.475 153.506 60.5333C153.523 60.5055 153.544 60.481 153.569 60.4609V60.4609ZM154.353 49.9415C154.334 50.7246 154.476 51.5026 154.769 52.2203C155.043 52.9648 155.516 53.6063 156.128 54.0652C156.739 54.5242 157.463 54.7803 158.209 54.8016C158.956 54.823 159.691 54.6087 160.325 54.1855C160.959 53.7622 161.462 53.1486 161.774 52.4209C162.295 51.2114 162.417 49.8481 162.122 48.5541C161.986 47.6887 161.598 46.8916 161.014 46.277C160.429 45.6625 159.678 45.2621 158.869 45.1331C158.217 45.0063 157.546 45.0726 156.927 45.3249C156.308 45.5773 155.765 46.0061 155.356 46.565C154.665 47.5307 154.31 48.725 154.353 49.9415V49.9415Z" fill="white"/>
<path d="M131.749 57.6194C131.718 57.0956 131.687 56.5886 131.651 56.0537C131.49 56.2041 131.344 56.3434 131.193 56.4771C130.571 57.0494 129.848 57.4823 129.066 57.7503C128.285 58.0183 127.462 58.116 126.645 58.0376C125.828 57.9592 125.034 57.7063 124.31 57.2938C123.585 56.8813 122.945 56.3176 122.427 55.6358C121.383 54.2754 120.773 52.5922 120.687 50.833C120.543 49.275 120.776 47.7036 121.362 46.2697C121.788 45.1378 122.494 44.1514 123.403 43.4163C124.312 42.6812 125.39 42.225 126.522 42.0965C127.893 41.867 129.295 42.1799 130.466 42.9768C130.831 43.2601 131.178 43.5691 131.505 43.9017C131.539 43.941 131.568 43.984 131.594 44.0299H131.646V42.4141H134.909V57.6472L131.749 57.6194ZM131.983 49.9415C131.921 49.4289 131.895 48.9107 131.791 48.4093C131.709 47.8864 131.531 47.3861 131.267 46.9375C131.003 46.4888 130.659 46.1007 130.255 45.7955C129.85 45.4903 129.394 45.2741 128.911 45.1595C128.428 45.0448 127.929 45.034 127.442 45.1275C125.805 45.3504 124.812 46.4425 124.298 48.075C124.03 48.9549 123.957 49.8897 124.085 50.8051C124.172 51.7448 124.516 52.6361 125.072 53.3681C125.507 53.9393 126.081 54.3695 126.731 54.6105C127.381 54.8516 128.08 54.8941 128.751 54.7332C129.329 54.6307 129.874 54.3787 130.341 53.9991C130.807 53.6195 131.18 53.1237 131.427 52.5547C131.786 51.7365 131.975 50.8453 131.983 49.9415V49.9415Z" fill="white"/>
<path d="M75.1929 57.5135V42.3862H78.2639V43.69C78.5757 43.4003 78.8511 43.105 79.1577 42.8598C80.0272 42.1889 81.0868 41.862 82.1559 41.9349C83.3231 41.9168 84.4568 42.3527 85.3472 43.162C86.2376 43.9713 86.8244 45.0991 86.9989 46.3366C87.1122 47.0078 87.1714 47.6882 87.1756 48.3703C87.1756 51.3066 87.1756 54.2485 87.1756 57.1848V57.5079H83.9902V48.6266C84.0079 48.2077 83.9887 47.788 83.9331 47.3729C83.8182 46.745 83.5202 46.1724 83.0822 45.7378C82.6442 45.3032 82.0888 45.029 81.496 44.9548C80.8619 44.9096 80.2317 45.0898 79.7028 45.4676C79.1739 45.8453 78.7759 46.3994 78.5705 47.0442C78.4963 47.2928 78.4578 47.5521 78.4562 47.8131C78.4562 50.9481 78.4562 54.0813 78.4562 57.2126V57.5135H75.1929Z" fill="white"/>
<path d="M172.286 57.5135H169.106C169.069 52.4989 169.038 47.4454 169.002 42.3863H169.225C170.103 42.3863 170.981 42.3863 171.854 42.3863C172.057 42.3863 172.104 42.4587 172.114 42.6593C172.114 43.0103 172.156 43.3613 172.177 43.6789C172.567 43.3147 172.974 42.9725 173.398 42.6537C174.52 41.951 175.855 41.7508 177.113 42.0965C177.7 42.2036 178.261 42.4383 178.76 42.7861C179.26 43.1339 179.688 43.5875 180.018 44.1191C180.499 44.9055 180.8 45.8028 180.896 46.7378C180.96 47.2662 180.993 47.7984 180.995 48.3313C180.995 51.3289 180.995 54.3265 180.995 57.3296C180.995 57.3909 180.995 57.4522 180.995 57.5302H177.83V57.2572C177.83 54.176 177.83 51.0893 177.83 48.0081C177.851 47.2613 177.608 46.5336 177.15 45.9707C176.691 45.4078 176.052 45.0512 175.359 44.9723C174.666 44.8934 173.971 45.0981 173.413 45.5453C172.854 45.9925 172.474 46.6492 172.348 47.3841C172.313 47.5805 172.295 47.7802 172.296 47.9803V57.5358L172.286 57.5135Z" fill="white"/>
<path d="M108.865 56.8783L109.457 54.0924C109.795 54.254 110.107 54.4267 110.434 54.566C111.388 55.0149 112.417 55.2482 113.459 55.2514C113.913 55.25 114.358 55.111 114.742 54.8502C114.916 54.7248 115.064 54.5619 115.176 54.3719C115.288 54.1818 115.361 53.9688 115.392 53.7465C115.423 53.5241 115.41 53.2973 115.355 53.0806C115.299 52.8639 115.202 52.662 115.069 52.4878C114.72 52.071 114.281 51.7517 113.791 51.5573C113.11 51.2453 112.409 51.0001 111.744 50.6435C110.909 50.2463 110.208 49.5854 109.733 48.7491C109.467 48.2452 109.305 47.6859 109.259 47.1091C109.212 46.5323 109.282 45.9515 109.463 45.4061C109.695 44.5893 110.131 43.8559 110.723 43.2854C111.316 42.7149 112.042 42.3288 112.825 42.1689C114.617 41.7141 116.503 41.9549 118.146 42.8487C118.176 42.8723 118.202 42.9032 118.22 42.9389C118.238 42.9746 118.248 43.0142 118.25 43.0548C118.042 43.9073 117.818 44.7542 117.595 45.6234L117.039 45.3392C116.087 44.8527 115.022 44.6783 113.978 44.8378C113.687 44.8564 113.406 44.9624 113.168 45.1437C112.93 45.3249 112.745 45.5741 112.632 45.863C112.503 46.2079 112.501 46.5927 112.626 46.9392C112.752 47.2858 112.995 47.5683 113.308 47.7295C113.793 48.0158 114.296 48.2635 114.815 48.4705C115.727 48.7853 116.583 49.2638 117.345 49.8858C118.087 50.5385 118.574 51.4644 118.712 52.4822C118.912 53.5818 118.723 54.722 118.182 55.6804C117.698 56.5235 116.947 57.1522 116.067 57.4522C114.914 57.8811 113.692 58.0568 112.475 57.9687C111.257 57.8806 110.068 57.5307 108.979 56.9396L108.865 56.8783Z" fill="white"/>
<path d="M87.8613 42.3695H91.2545C91.3118 42.3616 91.3699 42.3757 91.4185 42.4094C91.467 42.443 91.5028 42.4941 91.5195 42.5534C92.5588 45.1535 93.5981 47.7667 94.6373 50.3928C94.7828 50.7661 94.9283 51.1339 95.0998 51.5573L95.5882 50.2981C96.5894 47.7202 97.5888 45.1387 98.5865 42.5534C98.6229 42.4531 98.6645 42.3695 98.8048 42.3695H102.099C102.142 42.3658 102.186 42.3658 102.229 42.3695L95.0011 58.7114L87.8613 42.3695Z" fill="white"/>
<path d="M138.499 35.4383H141.763V57.6138H138.499V35.4383Z" fill="white"/>
<path d="M148.684 57.6249H145.431V42.3862H148.684V57.6249Z" fill="white"/>
<path d="M68.3545 57.6193V42.3806H71.5191V57.6193H68.3545Z" fill="white"/>
<path d="M103.43 42.3806H106.579V57.6193H103.43V42.3806Z" fill="white"/>
<path d="M105.082 35.104C105.335 35.0994 105.586 35.1497 105.821 35.2519C106.055 35.3541 106.268 35.506 106.446 35.6986C106.624 35.8912 106.764 36.1204 106.857 36.3725C106.951 36.6246 106.995 36.8943 106.989 37.1655C107.005 37.4542 106.967 37.7434 106.877 38.0159C106.787 38.2884 106.646 38.5387 106.464 38.7518C106.282 38.9649 106.061 39.1366 105.816 39.2565C105.57 39.3764 105.305 39.4422 105.035 39.4499C104.769 39.4466 104.506 39.3871 104.262 39.2749C104.017 39.1627 103.795 38.9998 103.609 38.7957C103.423 38.5916 103.276 38.3502 103.177 38.0853C103.078 37.8204 103.029 37.5372 103.032 37.2519C103.035 36.9665 103.091 36.6846 103.195 36.4222C103.3 36.1598 103.452 35.9221 103.642 35.7227C103.833 35.5232 104.058 35.3659 104.305 35.2598C104.552 35.1536 104.816 35.1007 105.082 35.104V35.104Z" fill="white"/>
<path d="M70.0069 35.104C70.2637 35.0992 70.5187 35.1506 70.7563 35.255C70.994 35.3594 71.2093 35.5146 71.3892 35.7112C71.5691 35.9077 71.7098 36.1415 71.8027 36.3982C71.8956 36.655 71.9387 36.9293 71.9295 37.2045C71.9409 37.7754 71.7433 38.3283 71.3791 38.7449C71.0148 39.1615 70.5129 39.4086 69.9809 39.4332C69.7148 39.4314 69.4516 39.3734 69.2064 39.2625C68.9611 39.1516 68.7387 38.99 68.5517 38.7869C68.3647 38.5838 68.2169 38.3432 68.1166 38.0789C68.0164 37.8146 67.9656 37.5317 67.9673 37.2463C67.969 36.9609 68.0232 36.6787 68.1266 36.4158C68.23 36.1528 68.3807 35.9143 68.5701 35.7138C68.7595 35.5134 68.9838 35.3548 69.2304 35.2473C69.4769 35.1398 69.7408 35.0854 70.0069 35.0872V35.104Z" fill="white"/>
<path d="M147.078 35.104C147.335 35.0993 147.59 35.1507 147.828 35.2551C148.066 35.3595 148.281 35.5147 148.461 35.7112C148.641 35.9077 148.781 36.1415 148.874 36.3982C148.967 36.655 149.01 36.9293 149.001 37.2045C149.007 37.631 148.894 38.0496 148.676 38.4063C148.458 38.7631 148.145 39.0416 147.778 39.2059C147.411 39.3703 147.006 39.4129 146.617 39.3283C146.227 39.2438 145.869 39.0359 145.591 38.7315C145.312 38.4271 145.125 38.0401 145.053 37.6206C144.982 37.201 145.029 36.7681 145.189 36.3777C145.35 35.9873 145.615 35.6572 145.952 35.4302C146.288 35.2032 146.681 35.0895 147.078 35.104V35.104Z" fill="white"/>
<path d="M39.1982 54.566C39.1982 54.566 45.6364 60.2659 39.3229 72.0111C39.3229 72.0111 36.5221 67.7098 36.5428 62.7509C36.5428 62.7398 36.1947 58.0094 39.1982 54.566Z" fill="white"/>
<path d="M41.7963 65.4643C41.7963 65.4643 40.014 66.3892 36.8286 65.5201C36.4301 63.4126 36.4656 61.2372 36.9326 59.146C36.9326 59.146 40.57 60.4999 41.7391 59.224C42.2343 61.2677 42.2539 63.4106 41.7963 65.4643V65.4643Z" fill="#C9C9C9"/>
<path d="M41.7182 59.224C41.7182 59.224 40.5802 60.5557 36.9116 59.146C37.2552 57.4185 38.0479 55.8306 39.198 54.566C40.461 55.8071 41.3403 57.4323 41.7182 59.224V59.224Z" fill="#A6A4A4"/>
<path d="M41.9312 53.4183C41.9312 53.4183 50.2452 52.4042 53.732 65.4309C53.732 65.4309 48.8994 64.6063 45.579 61.1463C45.579 61.1463 42.1702 58.132 41.9312 53.4183Z" fill="white"/>
<path d="M51.0507 59.0234C51.0507 59.0234 50.4324 61.046 47.6315 62.9236C45.9419 61.7683 44.5073 60.232 43.4277 58.4217C43.4277 58.4217 46.8521 56.5607 46.8209 54.761C48.5332 55.7918 49.9851 57.2549 51.0507 59.0234V59.0234Z" fill="#C9C9C9"/>
<path d="M46.8209 54.7109C46.8209 54.7109 46.9196 56.5161 43.4277 58.3715C42.5071 56.9028 41.9887 55.1868 41.9312 53.4183C43.6458 53.3055 45.3517 53.7564 46.8209 54.7109Z" fill="#A6A4A4"/>
<path d="M36.5585 46.5817C36.5585 46.5817 28.2444 47.5122 24.8616 34.4521C24.8616 34.4521 29.6837 35.3268 32.973 38.8147C32.9626 38.8147 36.361 41.8681 36.5585 46.5817Z" fill="white"/>
<path d="M27.4856 40.9097C27.4856 40.9097 28.1247 38.8927 30.9359 37.0708C32.6137 38.2438 34.0324 39.7954 35.093 41.6173C35.093 41.6173 31.653 43.4393 31.6686 45.2389C29.9658 44.1834 28.5297 42.6971 27.4856 40.9097V40.9097Z" fill="#C9C9C9"/>
<path d="M31.6789 45.239C31.6789 45.239 31.5957 43.4337 35.1032 41.6173C36.013 43.093 36.5172 44.8134 36.5582 46.5818C34.8421 46.678 33.1396 46.2094 31.6789 45.239Z" fill="#A6A4A4"/>
<path d="M39.1979 45.4451C39.1979 45.4451 32.8117 39.6784 39.2343 28C39.2343 28 41.9936 32.3292 41.9312 37.2937C41.9468 37.2937 42.243 42.0241 39.1979 45.4451Z" fill="white"/>
<path d="M36.7351 34.5078C36.7351 34.5078 38.5278 33.5996 41.7028 34.5078C42.0841 36.6177 42.0291 38.7916 41.5417 40.8763C41.5417 40.8763 37.9302 39.4834 36.7299 40.7482C36.254 38.6991 36.2558 36.5559 36.7351 34.5078Z" fill="#C9C9C9"/>
<path d="M36.7297 40.7481C36.7297 40.7481 37.8833 39.4332 41.5415 40.8763C41.1814 42.6035 40.3746 44.187 39.2136 45.4451C37.9602 44.1861 37.0938 42.5479 36.7297 40.7481V40.7481Z" fill="#A6A4A4"/>
<path d="M41.8431 46.4257C41.8431 46.4257 41.6093 37.4775 54.0076 34.8421C54.0076 34.8421 52.8333 39.9291 49.331 43.1997C49.3362 43.183 46.2444 46.5762 41.8431 46.4257Z" fill="white"/>
<path d="M47.8084 37.1599C47.8084 37.1599 49.6323 37.9901 51.1132 41.1382C49.8966 42.847 48.3466 44.2503 46.5716 45.2501C46.5716 45.2501 45.1375 41.4335 43.4539 41.3165C44.5665 39.57 46.0617 38.1428 47.8084 37.1599V37.1599Z" fill="#C9C9C9"/>
<path d="M43.459 41.3164C43.459 41.3164 45.1426 41.361 46.5768 45.2501C45.1348 46.1103 43.496 46.5177 41.8481 46.4257C41.8859 44.5862 42.4481 42.8032 43.459 41.3164V41.3164Z" fill="#A6A4A4"/>
<path d="M43.2251 50.0028C43.2251 50.0028 48.6033 43.1551 59.4947 50.0362C59.4947 50.0362 55.4572 52.9948 50.8273 52.9335C50.8273 52.9335 46.4156 53.2567 43.2251 50.0028Z" fill="white"/>
<path d="M53.4255 47.3228C53.4255 47.3228 54.2725 49.245 53.4255 52.6494C51.4577 53.0583 49.4303 52.9993 47.4861 52.4766C47.4861 52.4766 48.78 48.5764 47.6004 47.3228C49.5125 46.809 51.5133 46.809 53.4255 47.3228V47.3228Z" fill="#C9C9C9"/>
<path d="M47.6004 47.3228C47.6004 47.3228 48.8319 48.5541 47.4861 52.4766C45.8741 52.0937 44.3965 51.2281 43.2251 49.9805C44.3963 48.6364 45.9231 47.709 47.6004 47.3228V47.3228Z" fill="#A6A4A4"/>
<path d="M36.2622 53.1174C36.2622 53.1174 37.0364 62.0322 24.8303 65.5201C24.8303 65.5201 25.6929 60.3606 28.9874 56.8727C28.9822 56.8727 31.8609 53.2734 36.2622 53.1174Z" fill="white"/>
<path d="M30.884 62.7788C30.884 62.7788 29.0133 62.0712 27.3401 59.0346C28.4525 57.2466 29.9155 55.7406 31.627 54.6218C31.627 54.6218 33.2899 58.327 34.9683 58.327C33.9671 60.1469 32.5647 61.6756 30.884 62.7788V62.7788Z" fill="#C9C9C9"/>
<path d="M34.9579 58.3269C34.9579 58.3269 33.2743 58.3994 31.6167 54.6217C33.0023 53.6616 34.6125 53.1401 36.2622 53.1174C36.3335 54.9559 35.8783 56.7739 34.9579 58.3269Z" fill="#A6A4A4"/>
<path d="M35.2696 50.0084C35.2696 50.0084 29.8863 56.856 19 49.9749C19 49.9749 23.0323 47.0108 27.6622 47.0776C27.6622 47.0776 32.0739 46.7656 35.2696 50.0084Z" fill="white"/>
<path d="M25.0641 52.6661C25.0641 52.6661 24.2223 50.7438 25.0641 47.3395C27.0318 46.9308 29.0593 46.9897 31.0035 47.5122C31.0035 47.5122 29.7096 51.4124 30.8891 52.6661C28.9766 53.1766 26.9766 53.1766 25.0641 52.6661Z" fill="#C9C9C9"/>
<path d="M30.8839 52.6661C30.8839 52.6661 29.6524 51.4291 30.9982 47.5122C32.6115 47.8956 34.0906 48.7611 35.2644 50.0083C34.0905 51.3517 32.5623 52.2789 30.8839 52.6661V52.6661Z" fill="#A6A4A4"/>
</g>
<defs>
<clipPath id="clip0_117_261">
<rect width="162" height="44" fill="white" transform="translate(19 28)"/>
</clipPath>
</defs>
</svg>
