<svg width="200" height="92" viewBox="0 0 200 92" fill="none" xmlns="http://www.w3.org/2000/svg">
<path d="M121.567 47.9224C122.755 44.6054 125.762 42.0288 129.286 42.0288C132.811 42.0288 135.819 44.6054 137.005 47.9224H121.567V47.9224ZM144 51C144 49.9459 143.893 48.9185 143.691 47.9254V47.9224C142.297 41.1145 136.379 36 129.288 36C122.197 36 116.779 40.6952 115.086 47.0749V36.5085H102.398L95.0441 56.733L87.7431 36.5085H80.2997L82.5423 42.0809C79.8627 38.3922 75.5624 36 70.7136 36C62.5868 36 56 42.7157 56 51C56 59.2843 62.8317 66 71.2607 66C76.2077 66 80.6048 63.6851 83.3929 60.099L78.2449 55.8766C76.6917 58.022 74.1441 59.4225 71.2607 59.4225C67.4737 59.4225 64.2632 57.0065 63.1295 53.6583H85.1955C85.3465 52.7945 85.4257 51.9069 85.4257 50.9985C85.4257 50.2774 85.3715 49.5682 85.2747 48.8739L91.9612 65.49H98.0699L106.87 43.5186H108.166V65.49H115.085V54.8567C116.817 61.2706 122.763 65.9985 129.833 65.9985C134.781 65.9985 139.178 63.6836 141.966 60.0975L136.818 55.8751C135.265 58.0205 132.717 59.4211 129.833 59.4211C126.047 59.4211 122.836 57.0051 121.702 53.6569H143.77C143.921 52.793 144 51.9054 144 50.997V51ZM62.9945 47.9224C64.1825 44.6054 67.1892 42.0288 70.7136 42.0288C74.238 42.0288 77.2461 44.6054 78.4327 47.9224H62.9945Z" fill="white"/>
<path d="M111 34C113.209 34 115 32.2098 115 30.0007C115 27.7917 113.209 26 111 26C108.791 26 107 27.7903 107 29.9993C107 32.2083 108.791 33.9986 111 33.9986V34Z" fill="white"/>
</svg>
