<svg width="200" height="35" viewBox="0 0 200 35" fill="none" xmlns="http://www.w3.org/2000/svg">
<path d="M98.5105 9.07225L94.6226 27.0407H94.5216L90.7852 9.07225H84.1455L80.6363 27.0407H80.5353L76.6474 9.07225H64.4282L56.1475 18.5745V0.328125H49.5835V34.0915H56.1475V26.1814L58.8741 23.3762L64.8574 34.0915H72.7342L63.6708 18.7514L70.3106 11.4731L76.6726 34.0915H83.4386L87.3517 15.8451H87.4275L91.3406 34.0915H98.1066L105.276 9.07225H98.5105Z" fill="white"/>
<path d="M15.7536 16.68C15.4759 15.0878 14.9205 13.3946 11.3355 13.3946C7.75057 13.3946 7.29614 14.7593 7.29614 15.846C7.29614 19.7884 22.9488 16.9327 22.9488 26.1317C22.9488 33.4101 15.9051 34.7242 12.0172 34.7242C6.33678 34.7242 0.176723 32.753 0 26.0812H6.76597C6.76597 28.204 8.07877 29.7456 12.2191 29.7456C15.6021 29.7456 16.41 28.1029 16.41 27.1679C16.41 22.9727 0.908861 26.1317 0.908861 16.7811C0.908861 13.1166 3.20626 8.41602 11.0073 8.41602C15.8798 8.41602 21.7117 9.62907 22.2419 16.68H15.7536Z" fill="white"/>
<path d="M32.7696 9.07271H36.8595V13.7733H32.7696V27.3697C32.7696 28.8354 32.8201 29.3914 35.4962 29.3914C35.9254 29.3914 36.3798 29.3409 36.8595 29.2903V34.2689C35.8244 34.3195 34.7893 34.37 33.7542 34.37H32.8958C27.2154 34.37 26.1803 32.2219 26.1803 28.9618V13.7733H22.7974V9.07271H26.1803V2.2998H32.7443V9.07271H32.7696Z" fill="white"/>
<path d="M46.3773 6.11583H39.7881V0H46.3773V6.11583ZM46.3773 9.07266V34.092H39.7881V9.07266H46.3773Z" fill="white"/>
<path d="M116.789 34.7495C110.073 34.7495 104.014 30.6049 104.014 21.5827C104.014 12.5606 110.073 8.41602 116.789 8.41602C123.504 8.41602 129.563 12.5606 129.563 21.5827C129.563 30.6049 123.529 34.7495 116.789 34.7495ZM116.789 13.9759C111.714 13.9759 110.78 18.3985 110.78 21.5827C110.78 24.767 111.739 29.1896 116.789 29.1896C121.863 29.1896 122.797 24.767 122.797 21.5827C122.797 18.3985 121.863 13.9759 116.789 13.9759Z" fill="white"/>
<path d="M143.146 34.7495C136.43 34.7495 130.371 30.6049 130.371 21.5827C130.371 12.5606 136.43 8.41602 143.146 8.41602C149.861 8.41602 155.92 12.5606 155.92 21.5827C155.92 30.6049 149.861 34.7495 143.146 34.7495ZM143.146 13.9759C138.071 13.9759 137.137 18.3985 137.137 21.5827C137.137 24.767 138.071 29.1896 143.146 29.1896C148.22 29.1896 149.154 24.767 149.154 21.5827C149.154 18.3985 148.22 13.9759 143.146 13.9759Z" fill="white"/>
<path d="M181.015 34.0916H174.577V30.9325H174.476C172.885 33.763 169.957 34.7486 167.23 34.7486C159.808 34.7486 156.703 28.1526 156.703 21.3039C156.703 12.6609 161.6 8.41517 167.079 8.41517C171.295 8.41517 173.289 10.7149 174.299 12.3071H174.4V0.328125H180.989V34.0916H181.015ZM168.897 29.3404C173.062 29.3404 174.728 25.8529 174.728 22.1379C174.728 18.1449 173.592 14.1014 169.098 14.1014C164.933 14.1014 163.519 17.8164 163.519 21.7588C163.494 24.7409 164.655 29.3404 168.897 29.3404Z" fill="white"/>
</svg>
