<svg xmlns="http://www.w3.org/2000/svg" width="994" height="276.5"><g fill-rule="evenodd" clip-rule="evenodd"><path d="M994 14.8V19c-.2 2-1.4 3.2-3.2 3.8-1.4.4-2.8.4-4.1.4l-28.7.3c-2.4 0-2 0-2.1 1.9-1 10.9-1.1 21.8-1.4 32.7-.5 20.7-1.3 41.4-1.2 62.1.1 18.6 0 37.1-.2 55.6-.2 12.5-.3 25-.2 37.4 0 17.7.3 35.4.5 53.1l-.1 1.9a3.2 3.2 0 0 1-2.8 3c-.8.2-1.6.3-2.5.3H934c-3.8-.4-5.3-2-5.2-6l1-27.4c.4-11.6 1-23.2.7-34.8-.2-14.1.4-28.2.7-42.3 0-3.6 0-7.2-.5-10.8-.9-6.6-.4-13.2-.2-19.8l.8-32.6 1.8-54.6c.2-5.6.5-11.3.5-16.9 0-2.2-.2-1.8-2-1.7l-24.2 1.3c-3 .2-2.5.4-2.5-2.5V11.2c0-4 1.6-5.5 5.6-5.6l29.6-1c12.9-.4 25.8-1.1 38.7-2 3.8-.4 7.5-.9 11.3-.8 2.5.1 3.4.9 4 3.3v3.3c-.2 2.1-.2 4.3 0 6.4zM890.6 117c0 18 .1 36 .4 53.9 0 8.6.6 17.2 1 25.8.4 9.9.5 19.7-.7 29.5a88.4 88.4 0 0 1-9.2 30c-3.7 7.1-9.4 11.3-17 13-7.3 1.5-14.4.7-21.2-2.3-3.3-1.4-6-3.5-8.3-6.1a44.3 44.3 0 0 1-9.3-16.6c-2.4-7.8-4.5-15.7-5.4-23.8-.6-5-.7-10-1.1-15a1006.6 1006.6 0 0 1-3.4-61.2c-.5-20.9-.8-41.7-.2-62.6.5-16.5.3-33-.5-49.6l-.3-13.1c0-1.3 0-2.5.3-3.7.3-1.8.4-3.7.4-5.5 0-3.2 1.3-4.5 4.5-4.5 4 0 8.1 0 12.2-.2 2.8-.1 4 1 4.7 3.8.2 1 .2 2.1.2 3.2 0 15 0 30.2.2 45.2.3 23 .5 46 1 69l1.2 52.2c.3 9.5 1.2 18.9 2.1 28.3.5 4.7.9 9.5 1.5 14.2 1 6.6 4.5 11.7 9.8 15.6 2.8 2 5.2 2 8.1 0 7.3-5.2 10-12.3 8.8-21-.3-2.6-.4-5.2-.2-7.8 1-10 1-20 1.3-30.2.2-6.4 0-12.9-.8-19.3-.3-2.9 0-5.7.2-8.5.6-6.6.6-13.1.4-19.6l-.9-33.7c-.5-20.5-1.7-41-2.4-61.4-.3-6-.6-12-.2-18l.6-6c.4-2.7 1.2-3.3 4-3.5 4-.3 8.2-.6 12.4-.6 3 .1 4.8 1.9 4.8 5 .2 6.8.3 13.8.3 20.7l.6 84.5zM800 81.5c-.3-8.4-.4-17-1.2-25.3-.8-9.4-2.3-18.7-4-27.9-.7-3.7-1.3-7.4-2.7-11-3-7.4-8.3-12.1-16.3-13.7-4.6-.8-9.2-.7-13.7.5A20.8 20.8 0 0 0 747.4 16c-3.2 6.9-6 14-8.9 21a68 68 0 0 0-4.6 22c-.5 7.2-.6 14.4-1.4 21.6a1019.4 1019.4 0 0 0-4.6 73.7L727 181c-.1 3.3-.4 6.6 0 9.9.7 6.3 1.2 12.7 1.2 19 0 4.6.4 9.1 1 13.6 1.6 10.4 4.4 20.5 8 30.3 1.2 3.4 2.7 6.7 4.8 9.6 3.2 4.3 7.3 7 12.6 8 5.7 1 11.4.5 17.2 0 6.4-.5 11.2-3.5 14.9-8.5 5.6-7.8 9-16.6 9.9-26.2.7-7.8 1.6-15.6 2.5-23.4 1-8.6 2-17.1 2.1-25.8V161v-33L800 81.5zm-15.5 34c-.5 10.1-1 20.3-1.3 30.4-.1 6 .3 11.9.6 17.8.3 4.6.3 9.2-.1 13.8-.6 7.4-.7 15-1 22.4-.2 9.1-.6 18.3-1.4 27.4-.3 4.4-1.6 8.4-4.4 12-3.2 4-7.4 6.2-12.5 6.4-5 .3-8.7-2.2-10-7-2.4-8.7-4.4-17.4-4.7-26.3-.7-15.4-1.3-30.8-1.5-46.2a591.3 591.3 0 0 1 4.7-86.3c1.3-9.8 3.5-19.5 5.7-29.2L760 44c.7-2.7 2.2-4.9 4.3-6.7a5.4 5.4 0 0 1 5.3-1.4c3.8 1 6.6 3 8.2 6.8a52 52 0 0 1 3.4 13c1.3 9 2 17.8 2.9 26.7 0 .9.5 1.9-.7 2.6-.6.3-.2 1.4 0 2.2 1.4 9.4 1.4 18.8 1 28.3zM723.7 34c-.5-4.9-1.4-9.7-3.2-14.3A28.2 28.2 0 0 0 702 2.3c-3-1-6.3-1.6-9.5-2-3-.4-6.1-.5-9.1.3-4.9 1.2-9.7 2.6-14.5 4-2.9.8-4.4 2.9-4.7 5.8V13c0 11.3 0 22.6-.4 33.9a250 250 0 0 0 .6 33.9c.8 7.7 1.4 15.5 2 23.2.7 9.8 1 19.5 1.2 29.3.5 18 .8 35.9 1.2 56.9l.7 20.9c.4 14.7.7 29.5.6 44.3 0 4.1-.2 8.3.5 12.4.4 3.3 1.9 4.8 5.1 5.2 4 .6 8.2.6 12.2.2 3.5-.4 4.6-1.5 4.7-5 0-2.4-.3-4.7-.6-7-.4-4-1.3-8.2-1.5-12.3l-1.8-37.1-2.5-74.5c-.7-22.9-1.6-45.7-1.4-68.6 0-3.6 0-3.6 3.6-4a61 61 0 0 0 13-2.8A32.5 32.5 0 0 0 723 40.4c.7-2 1-4.2.8-6.4zM701 39a20 20 0 0 1-12.3 6.2c-2 .2-3.9.7-6.1.6l-1-15.9c0-2.4-.3-4.7-.4-7.1 0-4 1.5-5.7 5.4-6 3.3-.2 6.6.2 9.7 1.4 7.2 2.5 12 13.4 4.7 20.9zM654.6 187c-.2-9-1.1-17.8-1.7-26.7l-1.4-22.1c-.7-10.7-1.4-21.4-1.3-34.2.1-7.8-.3-17.7-1-27.6-.8-9.8-1.8-19.5-3.2-29.2-.8-5.9-1.4-11.9-2.7-17.7a34 34 0 0 0-6.8-15A21 21 0 0 0 618 6a31 31 0 0 0-11.5 3.1 23 23 0 0 0-12.7 14.3c-.6 2-1.3 3.9-1.8 6a246.5 246.5 0 0 0-7.2 47c-.3 8.5 0 17 1.1 25.4.7 5.1 1.3 10.3 1 15.6l-1 31.1c-.3 7.8-.7 15.6 0 23.3.8 7.3 1 14.6.7 21.9a84 84 0 0 0 .5 15.4c1.3 9.7 2.8 19.5 4.5 29.2 1 5.5 1.8 11 3.3 16.5.8 3 1.8 5.9 3.9 8.2a35 35 0 0 0 8.6 7.3c2.1 1.3 4.4 2.2 6.8 2.7 4.4 1 8.7.2 13-.6a23 23 0 0 0 19.5-17.9c2.2-8 4-16.3 5-24.6.7-6.9 1.5-13.7 2-20.6.7-7.5 1-15 .9-22.4zm-17.9-8.9l-.4 31.6c0 5.4-.1 10.8-.8 16.2-.7 4.8-2.8 9-6.6 12.3-3 2.6-6.4 4-10.3 4-4.7 0-8-2.2-9.4-6.7a107.2 107.2 0 0 1-5.7-29.8c-.7-11.6-1.5-23.2-2-34.8a599 599 0 0 1 .6-74c.5-7.3 1-14.6 1.9-21.9 1-8.8 2.7-17.4 4.4-26.1l1.6-8c.7-2.8 2.2-5.2 4.3-7.2 1.3-1.3 3-1.8 4.8-1.4 3.8.7 6.8 2.4 8.5 6 2.3 4.5 3.3 9.4 4.1 14.3 1.5 9 2.4 17.9 3.6 26.8 0 .4.3.9-.1 1-1.4.6-.8 1.7-.7 2.6l1.4 11.9c.7 6.7.3 13.3.2 20-.1 11.1-.7 22.2-.2 33.3.2 4 .6 8.1 1 12.2.5 5.9 0 11.8-.2 17.7zM580 270l-.8-3.6c-5.3-21.7-9.8-43.6-14.3-65.5-5.3-26-11-51.8-16.5-77.8-3.5-16.4-6.5-33-9.6-49.5-.2-1.2 0-1.7 1-2.1 2.6-1 5-2 7.5-3.2 4.8-2.2 9-5.2 12.6-9.1 5-5.6 7.7-12.2 7-19.7a36.6 36.6 0 0 0-20.3-31.1 47 47 0 0 0-40.8-1c-2.2.9-3.2 2.7-3.3 4.9-.3 7.6-.8 15.2-.9 22.8-.2 17.8.2 35.6.3 53.3l.5 75.8c0 9 .3 18.1.8 27.2.5 7.3.7 14.6-.2 21.9-.5 3.9-1 7.8-1 11.7-.2 9.8.2 19.7.6 29.5l.7 13c.4 4.3 2.4 6.4 6.8 7l3 .2c3.5.2 7 1 10.6.9 2.3-.1 3.3-1 3.6-3.3.2-.9.2-1.8 0-2.7-.5-3-.7-6-1-9a1119 1119 0 0 1-4.3-89.2c-.3-17-.7-34.1-.7-51.2V98.5c0-2.2.3-4.2 1-6.7 1 1.8 1.5 3.3 1.8 5l3.3 16.9c2 10.6 4 21.3 6.3 31.9 3 12.9 5.1 25.9 7.2 39 1.4 9.6 3 19.3 4.7 28.9 2.8 15.5 6 30.9 9 46.3.8 3.6 1.5 7.1 2.4 10.6.9 3 2.8 4.3 5.9 4 3-.5 6-.4 9-.3 1.7 0 3.4 0 5-.2 2.3-.3 3.3-1.5 3-3.9zM525 58.2c-2.9.4-3 .4-3-2.5V37.5h-.2V18.6c0-2.3 0-2.4 2.4-2.3 6.5 0 12 2.4 16 7.4 5.4 7 7 14.7 4.7 23.3a12.8 12.8 0 0 1-8.7 9c-3.6 1.3-7.4 1.7-11.2 2.2zM489.5 150.9c.1-10.5-.7-21-1.5-31.3l-2.6-31.3a163 163 0 0 0-3.5-22.8C479.3 54 475.5 43 472 32c-1.4-4-3.7-7.3-7-9.9a54.5 54.5 0 0 0-41.7-11.7 107 107 0 0 0-25 6.3c-3.7 1.4-5.2 3.3-5.3 7.4l-.1 8.3c-.1 9.5-.3 19-.3 28.6 0 10.3-.4 20.6-.3 31l-.2 23.5c.1 5.1 0 10.2-.3 15.3V171.9c.3 2.4.2 4.9 0 7.3.4.8.2 1.5.2 2.3l.1 11.7v19.3c.8 7.3.5 14.6.8 21.9.5 11.9.5 23.8 1 35.7.1 2.3 1.4 3.4 3.2 3.9.7.2 1.5.3 2.2.3l13 .7c2.7.1 5.6 0 8.4.9h23.8c3.2-1.2 6.7-1.5 10.1-1.9a28.5 28.5 0 0 0 21.2-13.6c2.3-3.4 3.9-7.1 5-11 3.8-12.1 5.6-24.6 7-37.2.8-8.5 1.3-17 1.6-25.5.4-12 .1-23.9.2-35.8zm-20.3 12.9c-.4 10.8-1.2 21.6-2.2 32.4-.7 7.5-1.3 15-2.4 22.5-1 7.4-2.6 14.7-4.3 22-.5 2-1.6 3.6-3.1 5-4.2 4-9.2 6.4-14.7 7.9a50.8 50.8 0 0 1-24.2.1c-3.4-.7-4.5-1.9-4.6-5.3-.3-5.7-.4-11.5-.5-17.3l-1.9-68.7-.4-19c-.4-19.3 0-38.7.2-58.1 0-12.5.4-25 .3-37.6 0-2.6-.3-5-.4-7.6-.2-5.1 1.7-7.8 6.6-9.1a40.5 40.5 0 0 1 17-1.5c6 1 10.8 3.7 14.6 8.2 2.1 2.6 4 5.4 5.2 8.4 4.4 10.2 8 20.6 10.7 31.4 1.5 6.3 2 12.8 2.7 19.2 1.4 13.3 1.3 26.7 1.6 40 .1 9 .2 18-.1 27zM301.8 13.1a110.6 110.6 0 0 0 14 .6c4 0 4.7.5 5.2 4.4.6 4.6.4 9.1.5 13.7 0 1.4-1 1-1.8 1.1l-16.5.2-45.4.2c-2.3 0-2.3 0-2.3 2.1a20600.5 20600.5 0 0 1 .6 75.7c0 2.4 0 2 2.2 2 7.2 0 14.3.1 21.5-.1 3.8-.1 5.4 1.3 5.5 5.1v9.8c0 .9-.2 1.8-.4 2.7a3.2 3.2 0 0 1-2.5 2.6l-1.4.3c-6.7 0-13.2 2-19.9 1.6-1.9 0-1.9 0-1.9 1.9l.3 49.2.4 46.5v16c0 3-.3 2.7 3 2.7l18.1-.2 39.5-.3h4.5c3.9 0 5.2 1.3 5 5v15.3c.1 2.2.1 2.2-2.2 2.2l-16.2.1c-13.7 0-27.3.2-41 .3l-32 .2c-2.3 0-2.1 0-2.1-2.2v-11.4c0-3.1-.2-6.2-.8-9.2-.5-2.2-.3-4.5-.3-6.7 0-13.4 0-26.7-.2-40 0-8.3.8-16.5.8-24.7 0-9.8-.5-19.5-.9-29.2-.4-13.7-.4-27.3 0-41 .6-14.6.2-29.3-.2-44-.3-11.4-.6-22.9-1.1-34.3-.3-5.1-1-10.2-1.5-15.2-.2-2.2-.4-2 1.9-2.1l15-.2c9.6-.1 19.3.1 28.9-.5l1.2-.2c.9.2 1.7.1 2.5 0h17.6c.8 0 1.6.2 2.4 0zM215 110.7c.3 20 .8 39.8 1.5 59.7.4 9.5.8 19 .8 28.4 0 2.6.1 5.2.5 7.8.2 1.6.2 3.3-.2 5-1 3.7-.6 7.5-.5 11.4l1.3 43.2c0 1.5.2 2.9.7 4.3 1 2.6.2 4-2.5 4.1-5 .3-9.9.6-14.8.1-3.3-.2-5-2-5.3-5.4-.4-7-.8-14-1-21l-1.3-43.9c-.3-13-.6-26-1.4-39l-1.2-20.4c0-1.3-.5-1.6-1.8-1.6l-27 .2c-1.7 0-1.7 0-1.7 1.8.1 6.1.3 12.2-.1 18.3-1.4 21.5-.7 43-.1 64.6l1 36c.2 2.3.6 4.6.5 7-.1 3.3-1.2 4.5-4.4 4.8-5.2.4-10.3.4-15.5.4h-1c-3.5-.5-4.4-1.4-4.2-5 .6-8.6.5-17.4.7-26.1.2-18.2.6-36.5.3-54.7-.5-29.9-1-59.8-2-89.6 0-4.9-.5-9.7-.7-14.5-.4-7-.3-14 .4-21 .5-5.6-.2-11.1-.8-16.6L134 37c-.4-5.6.4-11.1 1-16.6.3-2.4 2-3.4 4.2-4.1.7-.2 1.5-.2 2.2-.2H154c3.2 0 4 .8 4 4l.2 23.8.5 74.4v.8c-.2 1.2.4 1.5 1.6 1.5h5.7c8.3-.2 16.7-.3 25-.3 2.4 0 2.2 0 2.1-2.2l-.1-33.5-.3-28.2-.2-34c0-5.4 1.3-6.7 6.8-6.7h13c2.3 0 2.1-.2 2.1 2.1 0 9.4 0 18.8.2 28.2l.5 56.5v8.2zM52.8 148.6l-.4-71.8-.3-32.2c0-2.8.1-2.4-2.4-2.4l-39.2.3c-1.5 0-3 0-4.5-.3-1.7-.3-2.7-1.2-3-2.9a18 18 0 0 1-.5-4.4c0-2.8-.4-5.5-1.5-8l-.6-2c-.8-2.8-.6-3 2.3-3.3 21.5-1.8 43-1.2 64.6-1.5l50.7-.4c1.6 0 3.2.1 4.7.4 1.6.4 2.5 1.3 2.8 3 .6 4.2.3 8.4-.7 12.5-.6 2.2-2.5 3.5-5.2 3.6l-13.2.4H80.9c-1.2-.1-1.8.4-1.8 1.7l-.5 6.5c-1 12.2-1.5 24.4-1.8 36.6-.4 14.2-.3 28.3-.6 42.5-.5 24 0 48-.3 72-.3 15.8-.4 31.7-.3 47.6 0 6.9.6 13.7 1 20.5l.6 7c.1 1 0 1.5-1.2 1.4h-5.3l-14.7.1c-2.3 0-2.3.4-2.3-2.3 0-13.3-.2-26.5-.3-39.8l-.6-84.8z"/></g></svg>