<svg xmlns="http://www.w3.org/2000/svg" xmlns:xlink="http://www.w3.org/1999/xlink" width="500" zoomAndPan="magnify" viewBox="0 0 375 374.999991" height="500" preserveAspectRatio="xMidYMid meet" version="1.0"><defs><g/></defs><rect x="-37.5" width="450" fill="#ffffff" y="-37.499999" height="449.999989" fill-opacity="1"/><rect x="-37.5" width="450" fill="#ffffff" y="-37.499999" height="449.999989" fill-opacity="1"/><rect x="-37.5" width="450" fill="#ffffff" y="-37.499999" height="449.999989" fill-opacity="1"/><path fill="#f8f000" d="M 201.75 150.09375 L 281.210938 150.09375 L 281.210938 229.550781 L 201.75 229.550781 Z M 201.75 150.09375 " fill-opacity="1" fill-rule="nonzero"/><g fill="#000000" fill-opacity="1"><g transform="translate(110.069119, 201.314723)"><g><path d="M 9.828125 -3.757812 L 11.046875 0 L 15.160156 0 L 9.933594 -14.488281 L 5.3125 -14.488281 L 0.0859375 0 L 4.09375 0 L 5.3125 -3.757812 Z M 7.582031 -11.152344 L 8.925781 -6.699219 L 6.238281 -6.699219 Z M 7.582031 -11.152344 "/></g></g></g><g fill="#000000" fill-opacity="1"><g transform="translate(125.504179, 201.314723)"><g><path d="M 12.410156 -8.464844 C 12.117188 -10.414062 10.753906 -11.507812 8.441406 -11.507812 C 7.414062 -11.507812 6.613281 -11.277344 5.921875 -10.855469 L 4.914062 -9.472656 L 4.914062 -11.214844 L 1.132812 -11.214844 L 1.132812 0 L 4.914062 0 L 4.914062 -5.292969 C 4.914062 -7.832031 5.734375 -8.945312 6.886719 -8.945312 C 8.023438 -8.945312 8.609375 -8.316406 8.695312 -7.246094 C 8.734375 -6.679688 8.734375 -6.070312 8.734375 -5.710938 L 8.734375 0 L 12.515625 0 L 12.515625 -6.34375 C 12.515625 -7.246094 12.496094 -7.894531 12.410156 -8.464844 Z M 12.410156 -8.464844 "/></g></g></g><g fill="#000000" fill-opacity="1"><g transform="translate(139.616234, 201.314723)"><g><path d="M 12.914062 -15.433594 L 9.136719 -15.433594 L 9.136719 -9.765625 L 8.398438 -10.960938 C 7.832031 -11.296875 6.742188 -11.507812 5.816406 -11.507812 C 2.941406 -11.507812 0.503906 -9.34375 0.503906 -5.355469 C 0.503906 -2.035156 2.394531 0.292969 5.4375 0.292969 C 6.574219 0.292969 7.664062 0.0625 8.296875 -0.398438 L 9.136719 -1.636719 L 9.136719 0 L 12.914062 0 Z M 6.742188 -2.269531 C 5.417969 -2.269531 4.367188 -3.445312 4.367188 -5.542969 C 4.367188 -7.832031 5.375 -8.945312 6.847656 -8.945312 C 7.980469 -8.945312 9.136719 -8.191406 9.136719 -5.941406 L 9.136719 -5.460938 C 9.136719 -3.109375 8.128906 -2.269531 6.742188 -2.269531 Z M 6.742188 -2.269531 "/></g></g></g><g fill="#000000" fill-opacity="1"><g transform="translate(154.253286, 201.314723)"><g><path d="M 7.917969 -11.507812 C 7.203125 -11.507812 6.320312 -11.191406 5.710938 -10.519531 L 4.914062 -8.945312 L 4.914062 -11.214844 L 1.132812 -11.214844 L 1.132812 0 L 4.914062 0 L 4.914062 -4.117188 C 4.914062 -7.496094 5.941406 -8.546875 8.777344 -8.359375 L 8.777344 -11.445312 C 8.503906 -11.488281 8.273438 -11.507812 7.917969 -11.507812 Z M 7.917969 -11.507812 "/></g></g></g><g fill="#000000" fill-opacity="1"><g transform="translate(163.661327, 201.314723)"><g><path d="M 12.117188 -5.753906 C 12.117188 -8.652344 10.226562 -11.507812 6.488281 -11.507812 C 2.75 -11.507812 0.503906 -8.839844 0.503906 -5.566406 C 0.503906 -1.617188 3.066406 0.292969 6.277344 0.292969 C 9.15625 0.292969 11.257812 -1.132812 11.90625 -3.675781 L 8.191406 -3.675781 C 8.042969 -2.8125 7.390625 -2.269531 6.320312 -2.269531 C 5.25 -2.269531 4.429688 -2.792969 4.242188 -4.660156 L 12.054688 -4.660156 C 12.097656 -5.039062 12.117188 -5.417969 12.117188 -5.753906 Z M 6.300781 -8.945312 C 7.308594 -8.945312 7.960938 -8.296875 8.167969 -6.972656 L 4.367188 -6.972656 C 4.621094 -8.359375 5.3125 -8.945312 6.300781 -8.945312 Z M 6.300781 -8.945312 "/></g></g></g><g fill="#000000" fill-opacity="1"><g transform="translate(176.870372, 201.314723)"><g><path d="M 18.394531 -11.214844 L 14.320312 -11.214844 L 12.894531 -3.171875 L 11.464844 -11.128906 L 6.972656 -11.128906 L 5.628906 -3.191406 L 4.15625 -11.214844 L 0 -11.214844 L 3.550781 0 L 7.769531 0 L 9.199219 -7.558594 L 10.625 0 L 14.847656 0 Z M 18.394531 -11.214844 "/></g></g></g><g fill="#000000" fill-opacity="1"><g transform="translate(195.686449, 201.314723)"><g/></g></g><g fill="#000000" fill-opacity="1"><g transform="translate(199.970464, 201.314723)"><g><path d="M 5.460938 -11.550781 L 12.578125 -11.550781 L 12.578125 -14.488281 L 1.679688 -14.488281 L 1.679688 0 L 5.460938 0 L 5.460938 -5.796875 L 11.949219 -5.796875 L 11.949219 -8.734375 L 5.460938 -8.734375 Z M 5.460938 -11.550781 "/></g></g></g><g fill="#000000" fill-opacity="1"><g transform="translate(213.473519, 201.314723)"><g><path d="M 3.023438 -15.769531 C 1.847656 -15.769531 1.070312 -15.058594 1.070312 -13.921875 C 1.070312 -12.789062 1.847656 -12.074219 3.023438 -12.074219 C 4.199219 -12.074219 4.976562 -12.789062 4.976562 -13.921875 C 4.976562 -15.058594 4.199219 -15.769531 3.023438 -15.769531 Z M 4.914062 0 L 4.914062 -11.214844 L 1.132812 -11.214844 L 1.132812 0 Z M 4.914062 0 "/></g></g></g><g fill="#000000" fill-opacity="1"><g transform="translate(220.109547, 201.314723)"><g><path d="M 6.40625 -11.507812 C 3.109375 -11.507812 0.503906 -9.34375 0.503906 -5.480469 C 0.503906 -1.785156 2.941406 0.292969 6.152344 0.292969 C 9.199219 0.292969 11.445312 -1.21875 11.863281 -4.117188 L 8.148438 -4.117188 C 7.9375 -2.898438 7.222656 -2.269531 6.363281 -2.269531 C 5.082031 -2.269531 4.367188 -3.316406 4.367188 -5.710938 C 4.367188 -7.875 5.0625 -8.945312 6.320312 -8.945312 C 7.265625 -8.945312 8 -8.398438 8.167969 -6.929688 L 11.824219 -6.929688 C 11.71875 -9.449219 9.703125 -11.507812 6.40625 -11.507812 Z M 6.40625 -11.507812 "/></g></g></g><g fill="#000000" fill-opacity="1"><g transform="translate(233.024593, 201.314723)"><g><path d="M 5.710938 -4.15625 L 8.714844 0 L 13.355469 0 L 8.546875 -6.070312 L 13.292969 -11.214844 L 8.863281 -11.214844 L 4.914062 -6.511719 L 4.914062 -15.433594 L 1.132812 -15.433594 L 1.132812 0 L 4.914062 0 L 4.914062 -3.277344 Z M 5.710938 -4.15625 "/></g></g></g><g fill="#000000" fill-opacity="1"><g transform="translate(246.884646, 201.314723)"><g><path d="M 12.117188 -5.753906 C 12.117188 -8.652344 10.226562 -11.507812 6.488281 -11.507812 C 2.75 -11.507812 0.503906 -8.839844 0.503906 -5.566406 C 0.503906 -1.617188 3.066406 0.292969 6.277344 0.292969 C 9.15625 0.292969 11.257812 -1.132812 11.90625 -3.675781 L 8.191406 -3.675781 C 8.042969 -2.8125 7.390625 -2.269531 6.320312 -2.269531 C 5.25 -2.269531 4.429688 -2.792969 4.242188 -4.660156 L 12.054688 -4.660156 C 12.097656 -5.039062 12.117188 -5.417969 12.117188 -5.753906 Z M 6.300781 -8.945312 C 7.308594 -8.945312 7.960938 -8.296875 8.167969 -6.972656 L 4.367188 -6.972656 C 4.621094 -8.359375 5.3125 -8.945312 6.300781 -8.945312 Z M 6.300781 -8.945312 "/></g></g></g><g fill="#000000" fill-opacity="1"><g transform="translate(260.09369, 201.314723)"><g><path d="M 7.917969 -11.507812 C 7.203125 -11.507812 6.320312 -11.191406 5.710938 -10.519531 L 4.914062 -8.945312 L 4.914062 -11.214844 L 1.132812 -11.214844 L 1.132812 0 L 4.914062 0 L 4.914062 -4.117188 C 4.914062 -7.496094 5.941406 -8.546875 8.777344 -8.359375 L 8.777344 -11.445312 C 8.503906 -11.488281 8.273438 -11.507812 7.917969 -11.507812 Z M 7.917969 -11.507812 "/></g></g></g><g fill="#000000" fill-opacity="1"><g transform="translate(210.014009, 217.897603)"><g><path d="M 1.933594 -4.542969 L 4.691406 -4.542969 L 4.691406 -5.515625 L 0.679688 -5.515625 L 0.679688 0 L 1.933594 0 L 1.933594 -2.277344 L 4.429688 -2.277344 L 4.429688 -3.253906 L 1.933594 -3.253906 Z M 1.933594 -4.542969 "/></g></g></g><g fill="#000000" fill-opacity="1"><g transform="translate(214.953345, 217.897603)"><g><path d="M 4.542969 -4.261719 L 3.292969 -4.261719 L 3.292969 -1.984375 C 3.292969 -1.199219 2.957031 -0.757812 2.445312 -0.757812 C 1.957031 -0.757812 1.734375 -1.015625 1.679688 -1.445312 C 1.65625 -1.664062 1.648438 -1.894531 1.648438 -2.03125 L 1.648438 -4.261719 L 0.398438 -4.261719 L 0.398438 -1.757812 C 0.398438 -1.414062 0.40625 -1.183594 0.441406 -0.96875 C 0.535156 -0.382812 1.0625 0.113281 1.941406 0.113281 C 2.34375 0.113281 2.644531 0.03125 2.933594 -0.160156 L 3.292969 -0.726562 L 3.292969 0 L 4.542969 0 Z M 4.542969 -4.261719 "/></g></g></g><g fill="#000000" fill-opacity="1"><g transform="translate(220.092494, 217.897603)"><g><path d="M 1.695312 -5.875 L 0.441406 -5.875 L 0.441406 -1.429688 C 0.441406 -1.136719 0.441406 -0.925781 0.457031 -0.71875 C 0.488281 -0.160156 0.839844 0.0703125 1.4375 0.0703125 C 1.71875 0.0703125 1.949219 0.0546875 2.191406 0.03125 L 2.191406 -0.824219 C 1.816406 -0.808594 1.726562 -0.871094 1.703125 -1.0625 C 1.695312 -1.175781 1.695312 -1.269531 1.695312 -1.457031 Z M 1.695312 -5.875 "/></g></g></g><g fill="#000000" fill-opacity="1"><g transform="translate(222.538242, 217.897603)"><g><path d="M 1.695312 -5.875 L 0.441406 -5.875 L 0.441406 -1.429688 C 0.441406 -1.136719 0.441406 -0.925781 0.457031 -0.71875 C 0.488281 -0.160156 0.839844 0.0703125 1.4375 0.0703125 C 1.71875 0.0703125 1.949219 0.0546875 2.191406 0.03125 L 2.191406 -0.824219 C 1.816406 -0.808594 1.726562 -0.871094 1.703125 -1.0625 C 1.695312 -1.175781 1.695312 -1.269531 1.695312 -1.457031 Z M 1.695312 -5.875 "/></g></g></g><g fill="#000000" fill-opacity="1"><g transform="translate(224.98399, 217.897603)"><g/></g></g><g fill="#000000" fill-opacity="1"><g transform="translate(226.590555, 217.897603)"><g><path d="M 2.558594 -5.628906 C 1.488281 -5.628906 0.535156 -5.027344 0.535156 -3.996094 C 0.535156 -2.941406 1.253906 -2.550781 2.4375 -2.253906 C 3.191406 -2.078125 3.445312 -1.816406 3.445312 -1.429688 C 3.445312 -1.054688 3.085938 -0.816406 2.628906 -0.816406 C 2.125 -0.816406 1.6875 -1.085938 1.574219 -1.65625 L 0.3125 -1.65625 C 0.40625 -0.464844 1.304688 0.113281 2.65625 0.113281 C 3.757812 0.113281 4.757812 -0.464844 4.757812 -1.535156 C 4.757812 -2.40625 4.230469 -2.980469 3.015625 -3.269531 C 2.125 -3.476562 1.847656 -3.703125 1.847656 -4.117188 C 1.847656 -4.515625 2.125 -4.699219 2.519531 -4.699219 C 3.046875 -4.699219 3.332031 -4.375 3.398438 -3.863281 L 4.660156 -3.863281 C 4.542969 -4.859375 3.933594 -5.628906 2.558594 -5.628906 Z M 2.558594 -5.628906 "/></g></g></g><g fill="#000000" fill-opacity="1"><g transform="translate(231.633791, 217.897603)"><g><path d="M 1.976562 -3.429688 L 2.878906 -3.429688 L 2.878906 -4.230469 L 1.976562 -4.230469 L 1.976562 -5.300781 L 0.71875 -5.300781 L 0.71875 -4.230469 L 0.0703125 -4.230469 L 0.0703125 -3.429688 L 0.71875 -3.429688 L 0.71875 -1.472656 C 0.71875 -1.230469 0.71875 -1.039062 0.734375 -0.824219 C 0.785156 -0.199219 1.085938 0.105469 2.023438 0.105469 C 2.292969 0.105469 2.542969 0.078125 2.796875 0.0390625 L 2.796875 -0.757812 C 2.160156 -0.71875 2.015625 -0.816406 1.984375 -1.238281 C 1.976562 -1.351562 1.976562 -1.496094 1.976562 -1.640625 Z M 1.976562 -3.429688 "/></g></g></g><g fill="#000000" fill-opacity="1"><g transform="translate(234.774871, 217.897603)"><g><path d="M 2.957031 0 L 4.179688 0 C 4.117188 -0.472656 4.101562 -0.757812 4.101562 -1.078125 L 4.101562 -2.375 C 4.101562 -2.621094 4.09375 -2.863281 4.078125 -3.0625 C 4.011719 -3.820312 3.558594 -4.375 2.292969 -4.375 C 1.253906 -4.375 0.433594 -3.820312 0.40625 -2.847656 L 1.605469 -2.847656 C 1.640625 -3.269531 1.855469 -3.511719 2.246094 -3.511719 C 2.621094 -3.511719 2.8125 -3.300781 2.839844 -3.046875 C 2.855469 -2.902344 2.855469 -2.789062 2.855469 -2.679688 L 2.855469 -2.605469 L 2.582031 -2.605469 C 1.078125 -2.605469 0.253906 -2.0625 0.253906 -1.136719 C 0.253906 -0.328125 0.902344 0.113281 1.621094 0.113281 C 2.015625 0.113281 2.375 0.0234375 2.679688 -0.167969 L 2.871094 -0.625 Z M 2.117188 -0.75 C 1.773438 -0.75 1.542969 -0.917969 1.542969 -1.238281 C 1.542969 -1.734375 2.078125 -1.925781 2.855469 -1.863281 L 2.855469 -1.550781 C 2.855469 -1.023438 2.496094 -0.75 2.117188 -0.75 Z M 2.117188 -0.75 "/></g></g></g><g fill="#000000" fill-opacity="1"><g transform="translate(239.474441, 217.897603)"><g><path d="M 2.390625 -4.375 C 1.183594 -4.375 0.207031 -3.558594 0.207031 -2.09375 C 0.207031 -0.648438 1.101562 0.113281 2.285156 0.113281 C 3.398438 0.113281 4.214844 -0.441406 4.382812 -1.511719 L 3.140625 -1.511719 C 3.046875 -1.015625 2.742188 -0.75 2.359375 -0.75 C 1.839844 -0.75 1.496094 -1.183594 1.496094 -2.175781 C 1.496094 -3.078125 1.832031 -3.511719 2.359375 -3.511719 C 2.773438 -3.511719 3.070312 -3.269531 3.15625 -2.6875 L 4.382812 -2.6875 C 4.316406 -3.636719 3.582031 -4.375 2.390625 -4.375 Z M 2.390625 -4.375 "/></g></g></g><g fill="#000000" fill-opacity="1"><g transform="translate(244.174011, 217.897603)"><g><path d="M 2.054688 -1.632812 L 3.292969 0 L 4.851562 0 L 2.980469 -2.292969 L 4.828125 -4.261719 L 3.34375 -4.261719 L 1.726562 -2.390625 L 1.726562 -5.875 L 0.472656 -5.875 L 0.472656 0 L 1.726562 0 L 1.726562 -1.269531 Z M 2.054688 -1.632812 "/></g></g></g><g fill="#000000" fill-opacity="1"><g transform="translate(249.129334, 217.897603)"><g/></g></g><g fill="#000000" fill-opacity="1"><g transform="translate(250.735899, 217.897603)"><g><path d="M 8.058594 -5.515625 L 6.773438 -5.515625 L 5.867188 -0.933594 L 5.035156 -5.4375 L 3.253906 -5.4375 L 2.398438 -0.976562 L 1.550781 -5.515625 L 0.207031 -5.515625 L 1.566406 0 L 3.238281 0 L 4.125 -4.46875 L 4.957031 0 L 6.621094 0 Z M 8.058594 -5.515625 "/></g></g></g><g fill="#000000" fill-opacity="1"><g transform="translate(258.848166, 217.897603)"><g><path d="M 4.476562 -2.207031 C 4.476562 -3.34375 3.773438 -4.375 2.414062 -4.375 C 1.0625 -4.375 0.207031 -3.398438 0.207031 -2.117188 C 0.207031 -0.617188 1.144531 0.113281 2.335938 0.113281 C 3.375 0.113281 4.171875 -0.40625 4.40625 -1.390625 L 3.167969 -1.390625 C 3.09375 -0.992188 2.796875 -0.75 2.359375 -0.75 C 1.886719 -0.75 1.535156 -0.992188 1.464844 -1.808594 L 4.453125 -1.808594 C 4.46875 -1.957031 4.476562 -2.09375 4.476562 -2.207031 Z M 2.359375 -3.511719 C 2.820312 -3.511719 3.101562 -3.199219 3.175781 -2.597656 L 1.496094 -2.597656 C 1.597656 -3.230469 1.910156 -3.511719 2.359375 -3.511719 Z M 2.359375 -3.511719 "/></g></g></g><g fill="#000000" fill-opacity="1"><g transform="translate(263.667627, 217.897603)"><g><path d="M 3.140625 -4.375 C 2.710938 -4.375 2.285156 -4.277344 2.046875 -4.09375 L 1.726562 -3.621094 L 1.726562 -5.875 L 0.472656 -5.875 L 0.472656 0 L 1.726562 0 L 1.726562 -0.558594 L 2.007812 -0.113281 C 2.222656 0.0234375 2.644531 0.113281 3 0.113281 C 4.09375 0.113281 5.027344 -0.6875 5.027344 -2.222656 C 5.027344 -3.476562 4.316406 -4.375 3.140625 -4.375 Z M 2.703125 -0.75 C 2.222656 -0.75 1.726562 -1.070312 1.726562 -1.992188 L 1.726562 -2.183594 C 1.726562 -3.15625 2.167969 -3.511719 2.742188 -3.511719 C 3.332031 -3.511719 3.742188 -2.980469 3.742188 -2.144531 C 3.742188 -1.214844 3.308594 -0.75 2.703125 -0.75 Z M 2.703125 -0.75 "/></g></g></g></svg>